# xmcd
# 
# Track frame offsets:
#     150
#     11943
#     26704
#     37385
#     65778
#     74621
#     83985
#     100116
#     115970
#     130840
#     152753
#     165528
# 
# Disc length: 2380
# 
# Revision: 1
# Processed by: cddbd v1.5.2PL0 Copyright (c) Steve Scherf et al.
# Submitted via: fre:ac v1.0.31
# 
DISCID=ad094a0c
DTITLE=New Orleans - City of Dreams - Disc 4 - Ivory Emperors
DYEAR=2007
DGENRE=Jazz
TTITLE0=Eddie Bo/Hard Times
TTITLE1=James Booker/Classified
TTITLE2=Professor Longhair/Every Day, Every Night
TTITLE3=David Torkanowsky/Spring Can Really Hang You Up the Most
TTITLE4=Tuts Washington/Tee Nah Nah
TTITLE5=Willie Tee/On The Q-Tee
TTITLE6=Davell Crawford/Gumbo Piano
TTITLE7=James Booker/All By Myself
TTITLE8=Art Neville/My Children
TTITLE9=Champion Jack Dupree/I Don't Know
TTITLE10=Professor Longhair/Go to the Mardi Gras
TTITLE11=Tuts Washington/Do You Know What It Means to Miss New Orleans
EXTD=
EXTT0=
EXTT1=
EXTT2=
EXTT3=
EXTT4=
EXTT5=
EXTT6=
EXTT7=
EXTT8=
EXTT9=
EXTT10=
EXTT11=
PLAYORDER=
